<mxfile host="app.diagrams.net" modified="2022-10-31T06:57:01.762Z" agent="5.0 (Windows NT 10.0; Win64; x64) AppleWebKit/537.36 (KHTML, like Gecko) Chrome/107.0.0.0 Safari/537.36 Edg/107.0.1418.26" etag="7gpjDTJyB082x7PloOXu" version="20.5.1" type="github">
  <diagram id="ghEkZBXpxoRtFJgAvr62" name="第 1 页">
    <mxGraphModel dx="1550" dy="859" grid="1" gridSize="10" guides="1" tooltips="1" connect="1" arrows="1" fold="1" page="1" pageScale="1" pageWidth="827" pageHeight="1169" math="0" shadow="0">
      <root>
        <mxCell id="0" />
        <mxCell id="1" parent="0" />
        <mxCell id="kuLG41hzON39TPVbiv7C-4" value="Creator" style="swimlane;fontStyle=3;align=center;verticalAlign=top;childLayout=stackLayout;horizontal=1;startSize=26;horizontalStack=0;resizeParent=1;resizeParentMax=0;resizeLast=0;collapsible=1;marginBottom=0;" vertex="1" parent="1">
          <mxGeometry x="170" y="253" width="180" height="100" as="geometry" />
        </mxCell>
        <mxCell id="kuLG41hzON39TPVbiv7C-5" value="...." style="text;strokeColor=none;fillColor=none;align=left;verticalAlign=top;spacingLeft=4;spacingRight=4;overflow=hidden;rotatable=0;points=[[0,0.5],[1,0.5]];portConstraint=eastwest;" vertex="1" parent="kuLG41hzON39TPVbiv7C-4">
          <mxGeometry y="26" width="180" height="26" as="geometry" />
        </mxCell>
        <mxCell id="kuLG41hzON39TPVbiv7C-6" value="" style="line;strokeWidth=1;fillColor=none;align=left;verticalAlign=middle;spacingTop=-1;spacingLeft=3;spacingRight=3;rotatable=0;labelPosition=right;points=[];portConstraint=eastwest;strokeColor=inherit;" vertex="1" parent="kuLG41hzON39TPVbiv7C-4">
          <mxGeometry y="52" width="180" height="8" as="geometry" />
        </mxCell>
        <mxCell id="kuLG41hzON39TPVbiv7C-7" value="+ createProduce(): Produce&#xa;+ someOperation()" style="text;strokeColor=none;fillColor=none;align=left;verticalAlign=top;spacingLeft=4;spacingRight=4;overflow=hidden;rotatable=0;points=[[0,0.5],[1,0.5]];portConstraint=eastwest;fontStyle=2" vertex="1" parent="kuLG41hzON39TPVbiv7C-4">
          <mxGeometry y="60" width="180" height="40" as="geometry" />
        </mxCell>
        <mxCell id="kuLG41hzON39TPVbiv7C-8" value="«interface»&lt;br&gt;&lt;b&gt;Produce&lt;/b&gt;" style="html=1;" vertex="1" parent="1">
          <mxGeometry x="597" y="271" width="110" height="50" as="geometry" />
        </mxCell>
        <mxCell id="kuLG41hzON39TPVbiv7C-9" value="" style="endArrow=block;dashed=1;endFill=0;endSize=12;html=1;rounded=0;exitX=0.5;exitY=0;exitDx=0;exitDy=0;entryX=0.5;entryY=1;entryDx=0;entryDy=0;" edge="1" parent="1" source="kuLG41hzON39TPVbiv7C-12" target="kuLG41hzON39TPVbiv7C-8">
          <mxGeometry width="160" relative="1" as="geometry">
            <mxPoint x="548" y="411" as="sourcePoint" />
            <mxPoint x="683" y="371" as="targetPoint" />
          </mxGeometry>
        </mxCell>
        <mxCell id="kuLG41hzON39TPVbiv7C-10" value="" style="endArrow=block;dashed=1;endFill=0;endSize=12;html=1;rounded=0;exitX=0.5;exitY=0;exitDx=0;exitDy=0;entryX=0.5;entryY=1;entryDx=0;entryDy=0;" edge="1" parent="1" source="kuLG41hzON39TPVbiv7C-15" target="kuLG41hzON39TPVbiv7C-8">
          <mxGeometry width="160" relative="1" as="geometry">
            <mxPoint x="748" y="411" as="sourcePoint" />
            <mxPoint x="673" y="301" as="targetPoint" />
          </mxGeometry>
        </mxCell>
        <mxCell id="kuLG41hzON39TPVbiv7C-12" value="ProduceA" style="swimlane;fontStyle=1;align=center;verticalAlign=top;childLayout=stackLayout;horizontal=1;startSize=26;horizontalStack=0;resizeParent=1;resizeParentMax=0;resizeLast=0;collapsible=1;marginBottom=0;" vertex="1" parent="1">
          <mxGeometry x="456" y="415" width="160" height="60" as="geometry" />
        </mxCell>
        <mxCell id="kuLG41hzON39TPVbiv7C-13" value="" style="line;strokeWidth=1;fillColor=none;align=left;verticalAlign=middle;spacingTop=-1;spacingLeft=3;spacingRight=3;rotatable=0;labelPosition=right;points=[];portConstraint=eastwest;strokeColor=inherit;" vertex="1" parent="kuLG41hzON39TPVbiv7C-12">
          <mxGeometry y="26" width="160" height="8" as="geometry" />
        </mxCell>
        <mxCell id="kuLG41hzON39TPVbiv7C-14" value="+ doSome()" style="text;strokeColor=none;fillColor=none;align=left;verticalAlign=top;spacingLeft=4;spacingRight=4;overflow=hidden;rotatable=0;points=[[0,0.5],[1,0.5]];portConstraint=eastwest;" vertex="1" parent="kuLG41hzON39TPVbiv7C-12">
          <mxGeometry y="34" width="160" height="26" as="geometry" />
        </mxCell>
        <mxCell id="kuLG41hzON39TPVbiv7C-15" value="ProduceB" style="swimlane;fontStyle=1;align=center;verticalAlign=top;childLayout=stackLayout;horizontal=1;startSize=26;horizontalStack=0;resizeParent=1;resizeParentMax=0;resizeLast=0;collapsible=1;marginBottom=0;" vertex="1" parent="1">
          <mxGeometry x="656" y="415" width="160" height="60" as="geometry" />
        </mxCell>
        <mxCell id="kuLG41hzON39TPVbiv7C-16" value="" style="line;strokeWidth=1;fillColor=none;align=left;verticalAlign=middle;spacingTop=-1;spacingLeft=3;spacingRight=3;rotatable=0;labelPosition=right;points=[];portConstraint=eastwest;strokeColor=inherit;" vertex="1" parent="kuLG41hzON39TPVbiv7C-15">
          <mxGeometry y="26" width="160" height="8" as="geometry" />
        </mxCell>
        <mxCell id="kuLG41hzON39TPVbiv7C-17" value="+ doSome()" style="text;strokeColor=none;fillColor=none;align=left;verticalAlign=top;spacingLeft=4;spacingRight=4;overflow=hidden;rotatable=0;points=[[0,0.5],[1,0.5]];portConstraint=eastwest;" vertex="1" parent="kuLG41hzON39TPVbiv7C-15">
          <mxGeometry y="34" width="160" height="26" as="geometry" />
        </mxCell>
        <mxCell id="kuLG41hzON39TPVbiv7C-18" value="Use" style="endArrow=open;endSize=12;dashed=1;html=1;rounded=0;exitX=1;exitY=0.5;exitDx=0;exitDy=0;" edge="1" parent="1" source="kuLG41hzON39TPVbiv7C-5">
          <mxGeometry width="160" relative="1" as="geometry">
            <mxPoint x="496" y="295" as="sourcePoint" />
            <mxPoint x="596" y="292" as="targetPoint" />
          </mxGeometry>
        </mxCell>
        <mxCell id="kuLG41hzON39TPVbiv7C-23" value="ConcreteCreatorA" style="swimlane;fontStyle=1;align=center;verticalAlign=top;childLayout=stackLayout;horizontal=1;startSize=26;horizontalStack=0;resizeParent=1;resizeParentMax=0;resizeLast=0;collapsible=1;marginBottom=0;" vertex="1" parent="1">
          <mxGeometry x="40" y="410" width="170" height="86" as="geometry" />
        </mxCell>
        <mxCell id="kuLG41hzON39TPVbiv7C-24" value="..." style="text;strokeColor=none;fillColor=none;align=left;verticalAlign=top;spacingLeft=4;spacingRight=4;overflow=hidden;rotatable=0;points=[[0,0.5],[1,0.5]];portConstraint=eastwest;" vertex="1" parent="kuLG41hzON39TPVbiv7C-23">
          <mxGeometry y="26" width="170" height="26" as="geometry" />
        </mxCell>
        <mxCell id="kuLG41hzON39TPVbiv7C-25" value="" style="line;strokeWidth=1;fillColor=none;align=left;verticalAlign=middle;spacingTop=-1;spacingLeft=3;spacingRight=3;rotatable=0;labelPosition=right;points=[];portConstraint=eastwest;strokeColor=inherit;" vertex="1" parent="kuLG41hzON39TPVbiv7C-23">
          <mxGeometry y="52" width="170" height="8" as="geometry" />
        </mxCell>
        <mxCell id="kuLG41hzON39TPVbiv7C-26" value="+ createProduce():ProduceA" style="text;strokeColor=none;fillColor=none;align=left;verticalAlign=top;spacingLeft=4;spacingRight=4;overflow=hidden;rotatable=0;points=[[0,0.5],[1,0.5]];portConstraint=eastwest;" vertex="1" parent="kuLG41hzON39TPVbiv7C-23">
          <mxGeometry y="60" width="170" height="26" as="geometry" />
        </mxCell>
        <mxCell id="kuLG41hzON39TPVbiv7C-27" value="ConcreteCreatorB" style="swimlane;fontStyle=1;align=center;verticalAlign=top;childLayout=stackLayout;horizontal=1;startSize=26;horizontalStack=0;resizeParent=1;resizeParentMax=0;resizeLast=0;collapsible=1;marginBottom=0;" vertex="1" parent="1">
          <mxGeometry x="260" y="410" width="170" height="86" as="geometry" />
        </mxCell>
        <mxCell id="kuLG41hzON39TPVbiv7C-28" value="..." style="text;strokeColor=none;fillColor=none;align=left;verticalAlign=top;spacingLeft=4;spacingRight=4;overflow=hidden;rotatable=0;points=[[0,0.5],[1,0.5]];portConstraint=eastwest;" vertex="1" parent="kuLG41hzON39TPVbiv7C-27">
          <mxGeometry y="26" width="170" height="26" as="geometry" />
        </mxCell>
        <mxCell id="kuLG41hzON39TPVbiv7C-29" value="" style="line;strokeWidth=1;fillColor=none;align=left;verticalAlign=middle;spacingTop=-1;spacingLeft=3;spacingRight=3;rotatable=0;labelPosition=right;points=[];portConstraint=eastwest;strokeColor=inherit;" vertex="1" parent="kuLG41hzON39TPVbiv7C-27">
          <mxGeometry y="52" width="170" height="8" as="geometry" />
        </mxCell>
        <mxCell id="kuLG41hzON39TPVbiv7C-30" value="+ createProduce():ProduceB" style="text;strokeColor=none;fillColor=none;align=left;verticalAlign=top;spacingLeft=4;spacingRight=4;overflow=hidden;rotatable=0;points=[[0,0.5],[1,0.5]];portConstraint=eastwest;" vertex="1" parent="kuLG41hzON39TPVbiv7C-27">
          <mxGeometry y="60" width="170" height="26" as="geometry" />
        </mxCell>
        <mxCell id="kuLG41hzON39TPVbiv7C-31" value="Extends" style="endArrow=block;endSize=16;endFill=0;html=1;rounded=0;exitX=0.5;exitY=0;exitDx=0;exitDy=0;entryX=0.436;entryY=1.07;entryDx=0;entryDy=0;entryPerimeter=0;" edge="1" parent="1" source="kuLG41hzON39TPVbiv7C-23" target="kuLG41hzON39TPVbiv7C-7">
          <mxGeometry width="160" relative="1" as="geometry">
            <mxPoint x="120" y="370" as="sourcePoint" />
            <mxPoint x="260" y="370" as="targetPoint" />
          </mxGeometry>
        </mxCell>
        <mxCell id="kuLG41hzON39TPVbiv7C-32" value="Extends" style="endArrow=block;endSize=16;endFill=0;html=1;rounded=0;exitX=0.5;exitY=0;exitDx=0;exitDy=0;entryX=0.444;entryY=1.03;entryDx=0;entryDy=0;entryPerimeter=0;" edge="1" parent="1" source="kuLG41hzON39TPVbiv7C-27" target="kuLG41hzON39TPVbiv7C-7">
          <mxGeometry width="160" relative="1" as="geometry">
            <mxPoint x="130" y="420" as="sourcePoint" />
            <mxPoint x="250" y="350" as="targetPoint" />
          </mxGeometry>
        </mxCell>
        <mxCell id="kuLG41hzON39TPVbiv7C-33" value="Produce p =&amp;nbsp; createProduce()&lt;br&gt;p.doSome()" style="shape=note;whiteSpace=wrap;html=1;backgroundOutline=1;darkOpacity=0.05;align=left;fillColor=#6d8764;strokeColor=#3A5431;fontColor=#ffffff;" vertex="1" parent="1">
          <mxGeometry x="160" y="160" width="200" height="60" as="geometry" />
        </mxCell>
        <mxCell id="kuLG41hzON39TPVbiv7C-34" value="" style="endArrow=none;dashed=1;html=1;dashPattern=1 3;strokeWidth=2;rounded=0;entryX=0;entryY=0.5;entryDx=0;entryDy=0;entryPerimeter=0;exitX=-0.013;exitY=0.75;exitDx=0;exitDy=0;exitPerimeter=0;" edge="1" parent="1" target="kuLG41hzON39TPVbiv7C-33" source="kuLG41hzON39TPVbiv7C-7">
          <mxGeometry width="50" height="50" relative="1" as="geometry">
            <mxPoint x="160" y="345" as="sourcePoint" />
            <mxPoint x="150" y="216" as="targetPoint" />
            <Array as="points">
              <mxPoint x="130" y="343" />
              <mxPoint x="130" y="190" />
            </Array>
          </mxGeometry>
        </mxCell>
      </root>
    </mxGraphModel>
  </diagram>
</mxfile>
